<svg xmlns="http://www.w3.org/2000/svg" viewBox="0 0 1254 154" width="1254" height="154" role="img" aria-label="piper-draw">
  <title>piper-draw</title>
  <g data-letter="P">
    <rect x="22" y="22" width="22" height="22" fill="#7396ff" stroke="#4b6acc" stroke-width="1.5" shape-rendering="crispEdges" />
    <rect x="44" y="22" width="22" height="22" fill="#7396ff" stroke="#4b6acc" stroke-width="1.5" shape-rendering="crispEdges" />
    <rect x="66" y="22" width="22" height="22" fill="#7396ff" stroke="#4b6acc" stroke-width="1.5" shape-rendering="crispEdges" />
    <rect x="88" y="22" width="22" height="22" fill="#7396ff" stroke="#4b6acc" stroke-width="1.5" shape-rendering="crispEdges" />
    <rect x="22" y="44" width="22" height="22" fill="#7396ff" stroke="#4b6acc" stroke-width="1.5" shape-rendering="crispEdges" />
    <rect x="110" y="44" width="22" height="22" fill="#7396ff" stroke="#4b6acc" stroke-width="1.5" shape-rendering="crispEdges" />
    <rect x="22" y="66" width="22" height="22" fill="#7396ff" stroke="#4b6acc" stroke-width="1.5" shape-rendering="crispEdges" />
    <rect x="44" y="66" width="22" height="22" fill="#7396ff" stroke="#4b6acc" stroke-width="1.5" shape-rendering="crispEdges" />
    <rect x="66" y="66" width="22" height="22" fill="#7396ff" stroke="#4b6acc" stroke-width="1.5" shape-rendering="crispEdges" />
    <rect x="88" y="66" width="22" height="22" fill="#7396ff" stroke="#4b6acc" stroke-width="1.5" shape-rendering="crispEdges" />
    <rect x="22" y="88" width="22" height="22" fill="#7396ff" stroke="#4b6acc" stroke-width="1.5" shape-rendering="crispEdges" />
    <rect x="22" y="110" width="22" height="22" fill="#7396ff" stroke="#4b6acc" stroke-width="1.5" shape-rendering="crispEdges" />
  </g>
  <g data-letter="I">
    <rect x="154" y="22" width="22" height="22" fill="#ff7f7f" stroke="#c45959" stroke-width="1.5" shape-rendering="crispEdges" />
    <rect x="176" y="22" width="22" height="22" fill="#ff7f7f" stroke="#c45959" stroke-width="1.5" shape-rendering="crispEdges" />
    <rect x="198" y="22" width="22" height="22" fill="#ff7f7f" stroke="#c45959" stroke-width="1.5" shape-rendering="crispEdges" />
    <rect x="220" y="22" width="22" height="22" fill="#ff7f7f" stroke="#c45959" stroke-width="1.5" shape-rendering="crispEdges" />
    <rect x="242" y="22" width="22" height="22" fill="#ff7f7f" stroke="#c45959" stroke-width="1.5" shape-rendering="crispEdges" />
    <rect x="198" y="44" width="22" height="22" fill="#ff7f7f" stroke="#c45959" stroke-width="1.5" shape-rendering="crispEdges" />
    <rect x="198" y="66" width="22" height="22" fill="#ff7f7f" stroke="#c45959" stroke-width="1.5" shape-rendering="crispEdges" />
    <rect x="198" y="88" width="22" height="22" fill="#ff7f7f" stroke="#c45959" stroke-width="1.5" shape-rendering="crispEdges" />
    <rect x="154" y="110" width="22" height="22" fill="#ff7f7f" stroke="#c45959" stroke-width="1.5" shape-rendering="crispEdges" />
    <rect x="176" y="110" width="22" height="22" fill="#ff7f7f" stroke="#c45959" stroke-width="1.5" shape-rendering="crispEdges" />
    <rect x="198" y="110" width="22" height="22" fill="#ff7f7f" stroke="#c45959" stroke-width="1.5" shape-rendering="crispEdges" />
    <rect x="220" y="110" width="22" height="22" fill="#ff7f7f" stroke="#c45959" stroke-width="1.5" shape-rendering="crispEdges" />
    <rect x="242" y="110" width="22" height="22" fill="#ff7f7f" stroke="#c45959" stroke-width="1.5" shape-rendering="crispEdges" />
  </g>
  <g data-letter="P">
    <rect x="286" y="22" width="22" height="22" fill="#63c676" stroke="#3e8d4d" stroke-width="1.5" shape-rendering="crispEdges" />
    <rect x="308" y="22" width="22" height="22" fill="#63c676" stroke="#3e8d4d" stroke-width="1.5" shape-rendering="crispEdges" />
    <rect x="330" y="22" width="22" height="22" fill="#63c676" stroke="#3e8d4d" stroke-width="1.5" shape-rendering="crispEdges" />
    <rect x="352" y="22" width="22" height="22" fill="#63c676" stroke="#3e8d4d" stroke-width="1.5" shape-rendering="crispEdges" />
    <rect x="286" y="44" width="22" height="22" fill="#63c676" stroke="#3e8d4d" stroke-width="1.5" shape-rendering="crispEdges" />
    <rect x="374" y="44" width="22" height="22" fill="#63c676" stroke="#3e8d4d" stroke-width="1.5" shape-rendering="crispEdges" />
    <rect x="286" y="66" width="22" height="22" fill="#63c676" stroke="#3e8d4d" stroke-width="1.5" shape-rendering="crispEdges" />
    <rect x="308" y="66" width="22" height="22" fill="#63c676" stroke="#3e8d4d" stroke-width="1.5" shape-rendering="crispEdges" />
    <rect x="330" y="66" width="22" height="22" fill="#63c676" stroke="#3e8d4d" stroke-width="1.5" shape-rendering="crispEdges" />
    <rect x="352" y="66" width="22" height="22" fill="#63c676" stroke="#3e8d4d" stroke-width="1.5" shape-rendering="crispEdges" />
    <rect x="286" y="88" width="22" height="22" fill="#63c676" stroke="#3e8d4d" stroke-width="1.5" shape-rendering="crispEdges" />
    <rect x="286" y="110" width="22" height="22" fill="#63c676" stroke="#3e8d4d" stroke-width="1.5" shape-rendering="crispEdges" />
  </g>
  <g data-letter="E">
    <rect x="418" y="22" width="22" height="22" fill="#7396ff" stroke="#4b6acc" stroke-width="1.5" shape-rendering="crispEdges" />
    <rect x="440" y="22" width="22" height="22" fill="#7396ff" stroke="#4b6acc" stroke-width="1.5" shape-rendering="crispEdges" />
    <rect x="462" y="22" width="22" height="22" fill="#7396ff" stroke="#4b6acc" stroke-width="1.5" shape-rendering="crispEdges" />
    <rect x="484" y="22" width="22" height="22" fill="#7396ff" stroke="#4b6acc" stroke-width="1.5" shape-rendering="crispEdges" />
    <rect x="506" y="22" width="22" height="22" fill="#7396ff" stroke="#4b6acc" stroke-width="1.5" shape-rendering="crispEdges" />
    <rect x="418" y="44" width="22" height="22" fill="#7396ff" stroke="#4b6acc" stroke-width="1.5" shape-rendering="crispEdges" />
    <rect x="418" y="66" width="22" height="22" fill="#7396ff" stroke="#4b6acc" stroke-width="1.5" shape-rendering="crispEdges" />
    <rect x="440" y="66" width="22" height="22" fill="#7396ff" stroke="#4b6acc" stroke-width="1.5" shape-rendering="crispEdges" />
    <rect x="462" y="66" width="22" height="22" fill="#7396ff" stroke="#4b6acc" stroke-width="1.5" shape-rendering="crispEdges" />
    <rect x="484" y="66" width="22" height="22" fill="#7396ff" stroke="#4b6acc" stroke-width="1.5" shape-rendering="crispEdges" />
    <rect x="418" y="88" width="22" height="22" fill="#7396ff" stroke="#4b6acc" stroke-width="1.5" shape-rendering="crispEdges" />
    <rect x="418" y="110" width="22" height="22" fill="#7396ff" stroke="#4b6acc" stroke-width="1.5" shape-rendering="crispEdges" />
    <rect x="440" y="110" width="22" height="22" fill="#7396ff" stroke="#4b6acc" stroke-width="1.5" shape-rendering="crispEdges" />
    <rect x="462" y="110" width="22" height="22" fill="#7396ff" stroke="#4b6acc" stroke-width="1.5" shape-rendering="crispEdges" />
    <rect x="484" y="110" width="22" height="22" fill="#7396ff" stroke="#4b6acc" stroke-width="1.5" shape-rendering="crispEdges" />
    <rect x="506" y="110" width="22" height="22" fill="#7396ff" stroke="#4b6acc" stroke-width="1.5" shape-rendering="crispEdges" />
  </g>
  <g data-letter="R">
    <rect x="550" y="22" width="22" height="22" fill="#ff7f7f" stroke="#c45959" stroke-width="1.5" shape-rendering="crispEdges" />
    <rect x="572" y="22" width="22" height="22" fill="#ff7f7f" stroke="#c45959" stroke-width="1.5" shape-rendering="crispEdges" />
    <rect x="594" y="22" width="22" height="22" fill="#ff7f7f" stroke="#c45959" stroke-width="1.5" shape-rendering="crispEdges" />
    <rect x="616" y="22" width="22" height="22" fill="#ff7f7f" stroke="#c45959" stroke-width="1.5" shape-rendering="crispEdges" />
    <rect x="550" y="44" width="22" height="22" fill="#ff7f7f" stroke="#c45959" stroke-width="1.5" shape-rendering="crispEdges" />
    <rect x="638" y="44" width="22" height="22" fill="#ff7f7f" stroke="#c45959" stroke-width="1.5" shape-rendering="crispEdges" />
    <rect x="550" y="66" width="22" height="22" fill="#ff7f7f" stroke="#c45959" stroke-width="1.5" shape-rendering="crispEdges" />
    <rect x="572" y="66" width="22" height="22" fill="#ff7f7f" stroke="#c45959" stroke-width="1.5" shape-rendering="crispEdges" />
    <rect x="594" y="66" width="22" height="22" fill="#ff7f7f" stroke="#c45959" stroke-width="1.5" shape-rendering="crispEdges" />
    <rect x="616" y="66" width="22" height="22" fill="#ff7f7f" stroke="#c45959" stroke-width="1.5" shape-rendering="crispEdges" />
    <rect x="550" y="88" width="22" height="22" fill="#ff7f7f" stroke="#c45959" stroke-width="1.5" shape-rendering="crispEdges" />
    <rect x="616" y="88" width="22" height="22" fill="#ff7f7f" stroke="#c45959" stroke-width="1.5" shape-rendering="crispEdges" />
    <rect x="550" y="110" width="22" height="22" fill="#ff7f7f" stroke="#c45959" stroke-width="1.5" shape-rendering="crispEdges" />
    <rect x="638" y="110" width="22" height="22" fill="#ff7f7f" stroke="#c45959" stroke-width="1.5" shape-rendering="crispEdges" />
  </g>
  <g data-letter="D">
    <rect x="748" y="22" width="22" height="22" fill="#63c676" stroke="#3e8d4d" stroke-width="1.5" shape-rendering="crispEdges" />
    <rect x="770" y="22" width="22" height="22" fill="#63c676" stroke="#3e8d4d" stroke-width="1.5" shape-rendering="crispEdges" />
    <rect x="792" y="22" width="22" height="22" fill="#63c676" stroke="#3e8d4d" stroke-width="1.5" shape-rendering="crispEdges" />
    <rect x="814" y="22" width="22" height="22" fill="#63c676" stroke="#3e8d4d" stroke-width="1.5" shape-rendering="crispEdges" />
    <rect x="748" y="44" width="22" height="22" fill="#63c676" stroke="#3e8d4d" stroke-width="1.5" shape-rendering="crispEdges" />
    <rect x="836" y="44" width="22" height="22" fill="#63c676" stroke="#3e8d4d" stroke-width="1.5" shape-rendering="crispEdges" />
    <rect x="748" y="66" width="22" height="22" fill="#63c676" stroke="#3e8d4d" stroke-width="1.5" shape-rendering="crispEdges" />
    <rect x="836" y="66" width="22" height="22" fill="#63c676" stroke="#3e8d4d" stroke-width="1.5" shape-rendering="crispEdges" />
    <rect x="748" y="88" width="22" height="22" fill="#63c676" stroke="#3e8d4d" stroke-width="1.5" shape-rendering="crispEdges" />
    <rect x="836" y="88" width="22" height="22" fill="#63c676" stroke="#3e8d4d" stroke-width="1.5" shape-rendering="crispEdges" />
    <rect x="748" y="110" width="22" height="22" fill="#63c676" stroke="#3e8d4d" stroke-width="1.5" shape-rendering="crispEdges" />
    <rect x="770" y="110" width="22" height="22" fill="#63c676" stroke="#3e8d4d" stroke-width="1.5" shape-rendering="crispEdges" />
    <rect x="792" y="110" width="22" height="22" fill="#63c676" stroke="#3e8d4d" stroke-width="1.5" shape-rendering="crispEdges" />
    <rect x="814" y="110" width="22" height="22" fill="#63c676" stroke="#3e8d4d" stroke-width="1.5" shape-rendering="crispEdges" />
  </g>
  <g data-letter="R">
    <rect x="880" y="22" width="22" height="22" fill="#7396ff" stroke="#4b6acc" stroke-width="1.5" shape-rendering="crispEdges" />
    <rect x="902" y="22" width="22" height="22" fill="#7396ff" stroke="#4b6acc" stroke-width="1.5" shape-rendering="crispEdges" />
    <rect x="924" y="22" width="22" height="22" fill="#7396ff" stroke="#4b6acc" stroke-width="1.5" shape-rendering="crispEdges" />
    <rect x="946" y="22" width="22" height="22" fill="#7396ff" stroke="#4b6acc" stroke-width="1.5" shape-rendering="crispEdges" />
    <rect x="880" y="44" width="22" height="22" fill="#7396ff" stroke="#4b6acc" stroke-width="1.5" shape-rendering="crispEdges" />
    <rect x="968" y="44" width="22" height="22" fill="#7396ff" stroke="#4b6acc" stroke-width="1.5" shape-rendering="crispEdges" />
    <rect x="880" y="66" width="22" height="22" fill="#7396ff" stroke="#4b6acc" stroke-width="1.5" shape-rendering="crispEdges" />
    <rect x="902" y="66" width="22" height="22" fill="#7396ff" stroke="#4b6acc" stroke-width="1.5" shape-rendering="crispEdges" />
    <rect x="924" y="66" width="22" height="22" fill="#7396ff" stroke="#4b6acc" stroke-width="1.5" shape-rendering="crispEdges" />
    <rect x="946" y="66" width="22" height="22" fill="#7396ff" stroke="#4b6acc" stroke-width="1.5" shape-rendering="crispEdges" />
    <rect x="880" y="88" width="22" height="22" fill="#7396ff" stroke="#4b6acc" stroke-width="1.5" shape-rendering="crispEdges" />
    <rect x="946" y="88" width="22" height="22" fill="#7396ff" stroke="#4b6acc" stroke-width="1.5" shape-rendering="crispEdges" />
    <rect x="880" y="110" width="22" height="22" fill="#7396ff" stroke="#4b6acc" stroke-width="1.5" shape-rendering="crispEdges" />
    <rect x="968" y="110" width="22" height="22" fill="#7396ff" stroke="#4b6acc" stroke-width="1.5" shape-rendering="crispEdges" />
  </g>
  <g data-letter="A">
    <rect x="1034" y="22" width="22" height="22" fill="#ff7f7f" stroke="#c45959" stroke-width="1.5" shape-rendering="crispEdges" />
    <rect x="1056" y="22" width="22" height="22" fill="#ff7f7f" stroke="#c45959" stroke-width="1.5" shape-rendering="crispEdges" />
    <rect x="1078" y="22" width="22" height="22" fill="#ff7f7f" stroke="#c45959" stroke-width="1.5" shape-rendering="crispEdges" />
    <rect x="1012" y="44" width="22" height="22" fill="#ff7f7f" stroke="#c45959" stroke-width="1.5" shape-rendering="crispEdges" />
    <rect x="1100" y="44" width="22" height="22" fill="#ff7f7f" stroke="#c45959" stroke-width="1.5" shape-rendering="crispEdges" />
    <rect x="1012" y="66" width="22" height="22" fill="#ff7f7f" stroke="#c45959" stroke-width="1.5" shape-rendering="crispEdges" />
    <rect x="1034" y="66" width="22" height="22" fill="#ff7f7f" stroke="#c45959" stroke-width="1.5" shape-rendering="crispEdges" />
    <rect x="1056" y="66" width="22" height="22" fill="#ff7f7f" stroke="#c45959" stroke-width="1.5" shape-rendering="crispEdges" />
    <rect x="1078" y="66" width="22" height="22" fill="#ff7f7f" stroke="#c45959" stroke-width="1.5" shape-rendering="crispEdges" />
    <rect x="1100" y="66" width="22" height="22" fill="#ff7f7f" stroke="#c45959" stroke-width="1.5" shape-rendering="crispEdges" />
    <rect x="1012" y="88" width="22" height="22" fill="#ff7f7f" stroke="#c45959" stroke-width="1.5" shape-rendering="crispEdges" />
    <rect x="1100" y="88" width="22" height="22" fill="#ff7f7f" stroke="#c45959" stroke-width="1.5" shape-rendering="crispEdges" />
    <rect x="1012" y="110" width="22" height="22" fill="#ff7f7f" stroke="#c45959" stroke-width="1.5" shape-rendering="crispEdges" />
    <rect x="1100" y="110" width="22" height="22" fill="#ff7f7f" stroke="#c45959" stroke-width="1.5" shape-rendering="crispEdges" />
  </g>
  <g data-letter="W">
    <rect x="1144" y="22" width="22" height="22" fill="#63c676" stroke="#3e8d4d" stroke-width="1.5" shape-rendering="crispEdges" />
    <rect x="1232" y="22" width="22" height="22" fill="#63c676" stroke="#3e8d4d" stroke-width="1.5" shape-rendering="crispEdges" />
    <rect x="1144" y="44" width="22" height="22" fill="#63c676" stroke="#3e8d4d" stroke-width="1.5" shape-rendering="crispEdges" />
    <rect x="1232" y="44" width="22" height="22" fill="#63c676" stroke="#3e8d4d" stroke-width="1.5" shape-rendering="crispEdges" />
    <rect x="1144" y="66" width="22" height="22" fill="#63c676" stroke="#3e8d4d" stroke-width="1.5" shape-rendering="crispEdges" />
    <rect x="1188" y="66" width="22" height="22" fill="#63c676" stroke="#3e8d4d" stroke-width="1.5" shape-rendering="crispEdges" />
    <rect x="1232" y="66" width="22" height="22" fill="#63c676" stroke="#3e8d4d" stroke-width="1.5" shape-rendering="crispEdges" />
    <rect x="1144" y="88" width="22" height="22" fill="#63c676" stroke="#3e8d4d" stroke-width="1.5" shape-rendering="crispEdges" />
    <rect x="1188" y="88" width="22" height="22" fill="#63c676" stroke="#3e8d4d" stroke-width="1.5" shape-rendering="crispEdges" />
    <rect x="1232" y="88" width="22" height="22" fill="#63c676" stroke="#3e8d4d" stroke-width="1.5" shape-rendering="crispEdges" />
    <rect x="1166" y="110" width="22" height="22" fill="#63c676" stroke="#3e8d4d" stroke-width="1.5" shape-rendering="crispEdges" />
    <rect x="1210" y="110" width="22" height="22" fill="#63c676" stroke="#3e8d4d" stroke-width="1.5" shape-rendering="crispEdges" />
  </g>
</svg>
