<svg xmlns="http://www.w3.org/2000/svg" viewBox="0 0 1368 168" width="1368" height="168" role="img" aria-label="piper-draw">
  <title>piper-draw</title>
  <g data-letter="P">
    <rect x="44" y="32" width="8" height="8" fill="#aabcff" stroke="#4b6acc" stroke-width="1" shape-rendering="crispEdges" />
    <rect x="32" y="44" width="8" height="8" fill="#aabcff" stroke="#4b6acc" stroke-width="1" shape-rendering="crispEdges" />
    <rect x="68" y="32" width="8" height="8" fill="#aabcff" stroke="#4b6acc" stroke-width="1" shape-rendering="crispEdges" />
    <rect x="92" y="32" width="8" height="8" fill="#aabcff" stroke="#4b6acc" stroke-width="1" shape-rendering="crispEdges" />
    <rect x="104" y="44" width="8" height="8" fill="#aabcff" stroke="#4b6acc" stroke-width="1" shape-rendering="crispEdges" />
    <rect x="32" y="68" width="8" height="8" fill="#aabcff" stroke="#4b6acc" stroke-width="1" shape-rendering="crispEdges" />
    <rect x="104" y="68" width="8" height="8" fill="#aabcff" stroke="#4b6acc" stroke-width="1" shape-rendering="crispEdges" />
    <rect x="44" y="80" width="8" height="8" fill="#aabcff" stroke="#4b6acc" stroke-width="1" shape-rendering="crispEdges" />
    <rect x="32" y="92" width="8" height="8" fill="#aabcff" stroke="#4b6acc" stroke-width="1" shape-rendering="crispEdges" />
    <rect x="68" y="80" width="8" height="8" fill="#aabcff" stroke="#4b6acc" stroke-width="1" shape-rendering="crispEdges" />
    <rect x="92" y="80" width="8" height="8" fill="#aabcff" stroke="#4b6acc" stroke-width="1" shape-rendering="crispEdges" />
    <rect x="32" y="116" width="8" height="8" fill="#aabcff" stroke="#4b6acc" stroke-width="1" shape-rendering="crispEdges" />
    <rect x="28" y="28" width="16" height="16" fill="#7396ff" stroke="#4b6acc" stroke-width="1.5" shape-rendering="crispEdges" />
    <rect x="52" y="28" width="16" height="16" fill="#7396ff" stroke="#4b6acc" stroke-width="1.5" shape-rendering="crispEdges" />
    <rect x="76" y="28" width="16" height="16" fill="#7396ff" stroke="#4b6acc" stroke-width="1.5" shape-rendering="crispEdges" />
    <rect x="100" y="28" width="16" height="16" fill="#7396ff" stroke="#4b6acc" stroke-width="1.5" shape-rendering="crispEdges" />
    <rect x="28" y="52" width="16" height="16" fill="#7396ff" stroke="#4b6acc" stroke-width="1.5" shape-rendering="crispEdges" />
    <rect x="100" y="52" width="16" height="16" fill="#7396ff" stroke="#4b6acc" stroke-width="1.5" shape-rendering="crispEdges" />
    <rect x="28" y="76" width="16" height="16" fill="#7396ff" stroke="#4b6acc" stroke-width="1.5" shape-rendering="crispEdges" />
    <rect x="52" y="76" width="16" height="16" fill="#7396ff" stroke="#4b6acc" stroke-width="1.5" shape-rendering="crispEdges" />
    <rect x="76" y="76" width="16" height="16" fill="#7396ff" stroke="#4b6acc" stroke-width="1.5" shape-rendering="crispEdges" />
    <rect x="100" y="76" width="16" height="16" fill="#7396ff" stroke="#4b6acc" stroke-width="1.5" shape-rendering="crispEdges" />
    <rect x="28" y="100" width="16" height="16" fill="#7396ff" stroke="#4b6acc" stroke-width="1.5" shape-rendering="crispEdges" />
    <rect x="28" y="124" width="16" height="16" fill="#7396ff" stroke="#4b6acc" stroke-width="1.5" shape-rendering="crispEdges" />
  </g>
  <g data-letter="I">
    <rect x="188" y="32" width="8" height="8" fill="#ffb3b3" stroke="#c45959" stroke-width="1" shape-rendering="crispEdges" />
    <rect x="212" y="32" width="8" height="8" fill="#ffb3b3" stroke="#c45959" stroke-width="1" shape-rendering="crispEdges" />
    <rect x="236" y="32" width="8" height="8" fill="#ffb3b3" stroke="#c45959" stroke-width="1" shape-rendering="crispEdges" />
    <rect x="224" y="44" width="8" height="8" fill="#ffb3b3" stroke="#c45959" stroke-width="1" shape-rendering="crispEdges" />
    <rect x="260" y="32" width="8" height="8" fill="#ffb3b3" stroke="#c45959" stroke-width="1" shape-rendering="crispEdges" />
    <rect x="224" y="68" width="8" height="8" fill="#ffb3b3" stroke="#c45959" stroke-width="1" shape-rendering="crispEdges" />
    <rect x="224" y="92" width="8" height="8" fill="#ffb3b3" stroke="#c45959" stroke-width="1" shape-rendering="crispEdges" />
    <rect x="224" y="116" width="8" height="8" fill="#ffb3b3" stroke="#c45959" stroke-width="1" shape-rendering="crispEdges" />
    <rect x="188" y="128" width="8" height="8" fill="#ffb3b3" stroke="#c45959" stroke-width="1" shape-rendering="crispEdges" />
    <rect x="212" y="128" width="8" height="8" fill="#ffb3b3" stroke="#c45959" stroke-width="1" shape-rendering="crispEdges" />
    <rect x="236" y="128" width="8" height="8" fill="#ffb3b3" stroke="#c45959" stroke-width="1" shape-rendering="crispEdges" />
    <rect x="260" y="128" width="8" height="8" fill="#ffb3b3" stroke="#c45959" stroke-width="1" shape-rendering="crispEdges" />
    <rect x="172" y="28" width="16" height="16" fill="#ff7f7f" stroke="#c45959" stroke-width="1.5" shape-rendering="crispEdges" />
    <rect x="196" y="28" width="16" height="16" fill="#ff7f7f" stroke="#c45959" stroke-width="1.5" shape-rendering="crispEdges" />
    <rect x="220" y="28" width="16" height="16" fill="#ff7f7f" stroke="#c45959" stroke-width="1.5" shape-rendering="crispEdges" />
    <rect x="244" y="28" width="16" height="16" fill="#ff7f7f" stroke="#c45959" stroke-width="1.5" shape-rendering="crispEdges" />
    <rect x="268" y="28" width="16" height="16" fill="#ff7f7f" stroke="#c45959" stroke-width="1.5" shape-rendering="crispEdges" />
    <rect x="220" y="52" width="16" height="16" fill="#ff7f7f" stroke="#c45959" stroke-width="1.5" shape-rendering="crispEdges" />
    <rect x="220" y="76" width="16" height="16" fill="#ff7f7f" stroke="#c45959" stroke-width="1.5" shape-rendering="crispEdges" />
    <rect x="220" y="100" width="16" height="16" fill="#ff7f7f" stroke="#c45959" stroke-width="1.5" shape-rendering="crispEdges" />
    <rect x="172" y="124" width="16" height="16" fill="#ff7f7f" stroke="#c45959" stroke-width="1.5" shape-rendering="crispEdges" />
    <rect x="196" y="124" width="16" height="16" fill="#ff7f7f" stroke="#c45959" stroke-width="1.5" shape-rendering="crispEdges" />
    <rect x="220" y="124" width="16" height="16" fill="#ff7f7f" stroke="#c45959" stroke-width="1.5" shape-rendering="crispEdges" />
    <rect x="244" y="124" width="16" height="16" fill="#ff7f7f" stroke="#c45959" stroke-width="1.5" shape-rendering="crispEdges" />
    <rect x="268" y="124" width="16" height="16" fill="#ff7f7f" stroke="#c45959" stroke-width="1.5" shape-rendering="crispEdges" />
  </g>
  <g data-letter="P">
    <rect x="332" y="32" width="8" height="8" fill="#9adba5" stroke="#3e8d4d" stroke-width="1" shape-rendering="crispEdges" />
    <rect x="320" y="44" width="8" height="8" fill="#9adba5" stroke="#3e8d4d" stroke-width="1" shape-rendering="crispEdges" />
    <rect x="356" y="32" width="8" height="8" fill="#9adba5" stroke="#3e8d4d" stroke-width="1" shape-rendering="crispEdges" />
    <rect x="380" y="32" width="8" height="8" fill="#9adba5" stroke="#3e8d4d" stroke-width="1" shape-rendering="crispEdges" />
    <rect x="392" y="44" width="8" height="8" fill="#9adba5" stroke="#3e8d4d" stroke-width="1" shape-rendering="crispEdges" />
    <rect x="320" y="68" width="8" height="8" fill="#9adba5" stroke="#3e8d4d" stroke-width="1" shape-rendering="crispEdges" />
    <rect x="392" y="68" width="8" height="8" fill="#9adba5" stroke="#3e8d4d" stroke-width="1" shape-rendering="crispEdges" />
    <rect x="332" y="80" width="8" height="8" fill="#9adba5" stroke="#3e8d4d" stroke-width="1" shape-rendering="crispEdges" />
    <rect x="320" y="92" width="8" height="8" fill="#9adba5" stroke="#3e8d4d" stroke-width="1" shape-rendering="crispEdges" />
    <rect x="356" y="80" width="8" height="8" fill="#9adba5" stroke="#3e8d4d" stroke-width="1" shape-rendering="crispEdges" />
    <rect x="380" y="80" width="8" height="8" fill="#9adba5" stroke="#3e8d4d" stroke-width="1" shape-rendering="crispEdges" />
    <rect x="320" y="116" width="8" height="8" fill="#9adba5" stroke="#3e8d4d" stroke-width="1" shape-rendering="crispEdges" />
    <rect x="316" y="28" width="16" height="16" fill="#63c676" stroke="#3e8d4d" stroke-width="1.5" shape-rendering="crispEdges" />
    <rect x="340" y="28" width="16" height="16" fill="#63c676" stroke="#3e8d4d" stroke-width="1.5" shape-rendering="crispEdges" />
    <rect x="364" y="28" width="16" height="16" fill="#63c676" stroke="#3e8d4d" stroke-width="1.5" shape-rendering="crispEdges" />
    <rect x="388" y="28" width="16" height="16" fill="#63c676" stroke="#3e8d4d" stroke-width="1.5" shape-rendering="crispEdges" />
    <rect x="316" y="52" width="16" height="16" fill="#63c676" stroke="#3e8d4d" stroke-width="1.5" shape-rendering="crispEdges" />
    <rect x="388" y="52" width="16" height="16" fill="#63c676" stroke="#3e8d4d" stroke-width="1.5" shape-rendering="crispEdges" />
    <rect x="316" y="76" width="16" height="16" fill="#63c676" stroke="#3e8d4d" stroke-width="1.5" shape-rendering="crispEdges" />
    <rect x="340" y="76" width="16" height="16" fill="#63c676" stroke="#3e8d4d" stroke-width="1.5" shape-rendering="crispEdges" />
    <rect x="364" y="76" width="16" height="16" fill="#63c676" stroke="#3e8d4d" stroke-width="1.5" shape-rendering="crispEdges" />
    <rect x="388" y="76" width="16" height="16" fill="#63c676" stroke="#3e8d4d" stroke-width="1.5" shape-rendering="crispEdges" />
    <rect x="316" y="100" width="16" height="16" fill="#63c676" stroke="#3e8d4d" stroke-width="1.5" shape-rendering="crispEdges" />
    <rect x="316" y="124" width="16" height="16" fill="#63c676" stroke="#3e8d4d" stroke-width="1.5" shape-rendering="crispEdges" />
  </g>
  <g data-letter="E">
    <rect x="476" y="32" width="8" height="8" fill="#aabcff" stroke="#4b6acc" stroke-width="1" shape-rendering="crispEdges" />
    <rect x="464" y="44" width="8" height="8" fill="#aabcff" stroke="#4b6acc" stroke-width="1" shape-rendering="crispEdges" />
    <rect x="500" y="32" width="8" height="8" fill="#aabcff" stroke="#4b6acc" stroke-width="1" shape-rendering="crispEdges" />
    <rect x="524" y="32" width="8" height="8" fill="#aabcff" stroke="#4b6acc" stroke-width="1" shape-rendering="crispEdges" />
    <rect x="548" y="32" width="8" height="8" fill="#aabcff" stroke="#4b6acc" stroke-width="1" shape-rendering="crispEdges" />
    <rect x="464" y="68" width="8" height="8" fill="#aabcff" stroke="#4b6acc" stroke-width="1" shape-rendering="crispEdges" />
    <rect x="476" y="80" width="8" height="8" fill="#aabcff" stroke="#4b6acc" stroke-width="1" shape-rendering="crispEdges" />
    <rect x="464" y="92" width="8" height="8" fill="#aabcff" stroke="#4b6acc" stroke-width="1" shape-rendering="crispEdges" />
    <rect x="500" y="80" width="8" height="8" fill="#aabcff" stroke="#4b6acc" stroke-width="1" shape-rendering="crispEdges" />
    <rect x="524" y="80" width="8" height="8" fill="#aabcff" stroke="#4b6acc" stroke-width="1" shape-rendering="crispEdges" />
    <rect x="464" y="116" width="8" height="8" fill="#aabcff" stroke="#4b6acc" stroke-width="1" shape-rendering="crispEdges" />
    <rect x="476" y="128" width="8" height="8" fill="#aabcff" stroke="#4b6acc" stroke-width="1" shape-rendering="crispEdges" />
    <rect x="500" y="128" width="8" height="8" fill="#aabcff" stroke="#4b6acc" stroke-width="1" shape-rendering="crispEdges" />
    <rect x="524" y="128" width="8" height="8" fill="#aabcff" stroke="#4b6acc" stroke-width="1" shape-rendering="crispEdges" />
    <rect x="548" y="128" width="8" height="8" fill="#aabcff" stroke="#4b6acc" stroke-width="1" shape-rendering="crispEdges" />
    <rect x="460" y="28" width="16" height="16" fill="#7396ff" stroke="#4b6acc" stroke-width="1.5" shape-rendering="crispEdges" />
    <rect x="484" y="28" width="16" height="16" fill="#7396ff" stroke="#4b6acc" stroke-width="1.5" shape-rendering="crispEdges" />
    <rect x="508" y="28" width="16" height="16" fill="#7396ff" stroke="#4b6acc" stroke-width="1.5" shape-rendering="crispEdges" />
    <rect x="532" y="28" width="16" height="16" fill="#7396ff" stroke="#4b6acc" stroke-width="1.5" shape-rendering="crispEdges" />
    <rect x="556" y="28" width="16" height="16" fill="#7396ff" stroke="#4b6acc" stroke-width="1.5" shape-rendering="crispEdges" />
    <rect x="460" y="52" width="16" height="16" fill="#7396ff" stroke="#4b6acc" stroke-width="1.5" shape-rendering="crispEdges" />
    <rect x="460" y="76" width="16" height="16" fill="#7396ff" stroke="#4b6acc" stroke-width="1.5" shape-rendering="crispEdges" />
    <rect x="484" y="76" width="16" height="16" fill="#7396ff" stroke="#4b6acc" stroke-width="1.5" shape-rendering="crispEdges" />
    <rect x="508" y="76" width="16" height="16" fill="#7396ff" stroke="#4b6acc" stroke-width="1.5" shape-rendering="crispEdges" />
    <rect x="532" y="76" width="16" height="16" fill="#7396ff" stroke="#4b6acc" stroke-width="1.5" shape-rendering="crispEdges" />
    <rect x="460" y="100" width="16" height="16" fill="#7396ff" stroke="#4b6acc" stroke-width="1.5" shape-rendering="crispEdges" />
    <rect x="460" y="124" width="16" height="16" fill="#7396ff" stroke="#4b6acc" stroke-width="1.5" shape-rendering="crispEdges" />
    <rect x="484" y="124" width="16" height="16" fill="#7396ff" stroke="#4b6acc" stroke-width="1.5" shape-rendering="crispEdges" />
    <rect x="508" y="124" width="16" height="16" fill="#7396ff" stroke="#4b6acc" stroke-width="1.5" shape-rendering="crispEdges" />
    <rect x="532" y="124" width="16" height="16" fill="#7396ff" stroke="#4b6acc" stroke-width="1.5" shape-rendering="crispEdges" />
    <rect x="556" y="124" width="16" height="16" fill="#7396ff" stroke="#4b6acc" stroke-width="1.5" shape-rendering="crispEdges" />
  </g>
  <g data-letter="R">
    <rect x="620" y="32" width="8" height="8" fill="#ffb3b3" stroke="#c45959" stroke-width="1" shape-rendering="crispEdges" />
    <rect x="608" y="44" width="8" height="8" fill="#ffb3b3" stroke="#c45959" stroke-width="1" shape-rendering="crispEdges" />
    <rect x="644" y="32" width="8" height="8" fill="#ffb3b3" stroke="#c45959" stroke-width="1" shape-rendering="crispEdges" />
    <rect x="668" y="32" width="8" height="8" fill="#ffb3b3" stroke="#c45959" stroke-width="1" shape-rendering="crispEdges" />
    <rect x="680" y="44" width="8" height="8" fill="#ffb3b3" stroke="#c45959" stroke-width="1" shape-rendering="crispEdges" />
    <rect x="608" y="68" width="8" height="8" fill="#ffb3b3" stroke="#c45959" stroke-width="1" shape-rendering="crispEdges" />
    <rect x="680" y="68" width="8" height="8" fill="#ffb3b3" stroke="#c45959" stroke-width="1" shape-rendering="crispEdges" />
    <rect x="620" y="80" width="8" height="8" fill="#ffb3b3" stroke="#c45959" stroke-width="1" shape-rendering="crispEdges" />
    <rect x="608" y="92" width="8" height="8" fill="#ffb3b3" stroke="#c45959" stroke-width="1" shape-rendering="crispEdges" />
    <rect x="644" y="80" width="8" height="8" fill="#ffb3b3" stroke="#c45959" stroke-width="1" shape-rendering="crispEdges" />
    <rect x="668" y="80" width="8" height="8" fill="#ffb3b3" stroke="#c45959" stroke-width="1" shape-rendering="crispEdges" />
    <rect x="680" y="92" width="8" height="8" fill="#ffb3b3" stroke="#c45959" stroke-width="1" shape-rendering="crispEdges" />
    <rect x="608" y="116" width="8" height="8" fill="#ffb3b3" stroke="#c45959" stroke-width="1" shape-rendering="crispEdges" />
    <rect x="680" y="116" width="8" height="8" fill="#ffb3b3" stroke="#c45959" stroke-width="1" shape-rendering="crispEdges" />
    <rect x="692" y="128" width="8" height="8" fill="#ffb3b3" stroke="#c45959" stroke-width="1" shape-rendering="crispEdges" />
    <rect x="604" y="28" width="16" height="16" fill="#ff7f7f" stroke="#c45959" stroke-width="1.5" shape-rendering="crispEdges" />
    <rect x="628" y="28" width="16" height="16" fill="#ff7f7f" stroke="#c45959" stroke-width="1.5" shape-rendering="crispEdges" />
    <rect x="652" y="28" width="16" height="16" fill="#ff7f7f" stroke="#c45959" stroke-width="1.5" shape-rendering="crispEdges" />
    <rect x="676" y="28" width="16" height="16" fill="#ff7f7f" stroke="#c45959" stroke-width="1.5" shape-rendering="crispEdges" />
    <rect x="604" y="52" width="16" height="16" fill="#ff7f7f" stroke="#c45959" stroke-width="1.5" shape-rendering="crispEdges" />
    <rect x="676" y="52" width="16" height="16" fill="#ff7f7f" stroke="#c45959" stroke-width="1.5" shape-rendering="crispEdges" />
    <rect x="604" y="76" width="16" height="16" fill="#ff7f7f" stroke="#c45959" stroke-width="1.5" shape-rendering="crispEdges" />
    <rect x="628" y="76" width="16" height="16" fill="#ff7f7f" stroke="#c45959" stroke-width="1.5" shape-rendering="crispEdges" />
    <rect x="652" y="76" width="16" height="16" fill="#ff7f7f" stroke="#c45959" stroke-width="1.5" shape-rendering="crispEdges" />
    <rect x="676" y="76" width="16" height="16" fill="#ff7f7f" stroke="#c45959" stroke-width="1.5" shape-rendering="crispEdges" />
    <rect x="604" y="100" width="16" height="16" fill="#ff7f7f" stroke="#c45959" stroke-width="1.5" shape-rendering="crispEdges" />
    <rect x="676" y="100" width="16" height="16" fill="#ff7f7f" stroke="#c45959" stroke-width="1.5" shape-rendering="crispEdges" />
    <rect x="604" y="124" width="16" height="16" fill="#ff7f7f" stroke="#c45959" stroke-width="1.5" shape-rendering="crispEdges" />
    <rect x="676" y="124" width="16" height="16" fill="#ff7f7f" stroke="#c45959" stroke-width="1.5" shape-rendering="crispEdges" />
    <rect x="700" y="124" width="16" height="16" fill="#ff7f7f" stroke="#c45959" stroke-width="1.5" shape-rendering="crispEdges" />
  </g>
  <g data-letter="D">
    <rect x="836" y="32" width="8" height="8" fill="#9adba5" stroke="#3e8d4d" stroke-width="1" shape-rendering="crispEdges" />
    <rect x="824" y="44" width="8" height="8" fill="#9adba5" stroke="#3e8d4d" stroke-width="1" shape-rendering="crispEdges" />
    <rect x="860" y="32" width="8" height="8" fill="#9adba5" stroke="#3e8d4d" stroke-width="1" shape-rendering="crispEdges" />
    <rect x="884" y="32" width="8" height="8" fill="#9adba5" stroke="#3e8d4d" stroke-width="1" shape-rendering="crispEdges" />
    <rect x="896" y="44" width="8" height="8" fill="#9adba5" stroke="#3e8d4d" stroke-width="1" shape-rendering="crispEdges" />
    <rect x="824" y="68" width="8" height="8" fill="#9adba5" stroke="#3e8d4d" stroke-width="1" shape-rendering="crispEdges" />
    <rect x="896" y="68" width="8" height="8" fill="#9adba5" stroke="#3e8d4d" stroke-width="1" shape-rendering="crispEdges" />
    <rect x="824" y="92" width="8" height="8" fill="#9adba5" stroke="#3e8d4d" stroke-width="1" shape-rendering="crispEdges" />
    <rect x="896" y="92" width="8" height="8" fill="#9adba5" stroke="#3e8d4d" stroke-width="1" shape-rendering="crispEdges" />
    <rect x="824" y="116" width="8" height="8" fill="#9adba5" stroke="#3e8d4d" stroke-width="1" shape-rendering="crispEdges" />
    <rect x="896" y="116" width="8" height="8" fill="#9adba5" stroke="#3e8d4d" stroke-width="1" shape-rendering="crispEdges" />
    <rect x="836" y="128" width="8" height="8" fill="#9adba5" stroke="#3e8d4d" stroke-width="1" shape-rendering="crispEdges" />
    <rect x="860" y="128" width="8" height="8" fill="#9adba5" stroke="#3e8d4d" stroke-width="1" shape-rendering="crispEdges" />
    <rect x="884" y="128" width="8" height="8" fill="#9adba5" stroke="#3e8d4d" stroke-width="1" shape-rendering="crispEdges" />
    <rect x="820" y="28" width="16" height="16" fill="#63c676" stroke="#3e8d4d" stroke-width="1.5" shape-rendering="crispEdges" />
    <rect x="844" y="28" width="16" height="16" fill="#63c676" stroke="#3e8d4d" stroke-width="1.5" shape-rendering="crispEdges" />
    <rect x="868" y="28" width="16" height="16" fill="#63c676" stroke="#3e8d4d" stroke-width="1.5" shape-rendering="crispEdges" />
    <rect x="892" y="28" width="16" height="16" fill="#63c676" stroke="#3e8d4d" stroke-width="1.5" shape-rendering="crispEdges" />
    <rect x="820" y="52" width="16" height="16" fill="#63c676" stroke="#3e8d4d" stroke-width="1.5" shape-rendering="crispEdges" />
    <rect x="892" y="52" width="16" height="16" fill="#63c676" stroke="#3e8d4d" stroke-width="1.5" shape-rendering="crispEdges" />
    <rect x="820" y="76" width="16" height="16" fill="#63c676" stroke="#3e8d4d" stroke-width="1.5" shape-rendering="crispEdges" />
    <rect x="892" y="76" width="16" height="16" fill="#63c676" stroke="#3e8d4d" stroke-width="1.5" shape-rendering="crispEdges" />
    <rect x="820" y="100" width="16" height="16" fill="#63c676" stroke="#3e8d4d" stroke-width="1.5" shape-rendering="crispEdges" />
    <rect x="892" y="100" width="16" height="16" fill="#63c676" stroke="#3e8d4d" stroke-width="1.5" shape-rendering="crispEdges" />
    <rect x="820" y="124" width="16" height="16" fill="#63c676" stroke="#3e8d4d" stroke-width="1.5" shape-rendering="crispEdges" />
    <rect x="844" y="124" width="16" height="16" fill="#63c676" stroke="#3e8d4d" stroke-width="1.5" shape-rendering="crispEdges" />
    <rect x="868" y="124" width="16" height="16" fill="#63c676" stroke="#3e8d4d" stroke-width="1.5" shape-rendering="crispEdges" />
    <rect x="892" y="124" width="16" height="16" fill="#63c676" stroke="#3e8d4d" stroke-width="1.5" shape-rendering="crispEdges" />
  </g>
  <g data-letter="R">
    <rect x="980" y="32" width="8" height="8" fill="#aabcff" stroke="#4b6acc" stroke-width="1" shape-rendering="crispEdges" />
    <rect x="968" y="44" width="8" height="8" fill="#aabcff" stroke="#4b6acc" stroke-width="1" shape-rendering="crispEdges" />
    <rect x="1004" y="32" width="8" height="8" fill="#aabcff" stroke="#4b6acc" stroke-width="1" shape-rendering="crispEdges" />
    <rect x="1028" y="32" width="8" height="8" fill="#aabcff" stroke="#4b6acc" stroke-width="1" shape-rendering="crispEdges" />
    <rect x="1040" y="44" width="8" height="8" fill="#aabcff" stroke="#4b6acc" stroke-width="1" shape-rendering="crispEdges" />
    <rect x="968" y="68" width="8" height="8" fill="#aabcff" stroke="#4b6acc" stroke-width="1" shape-rendering="crispEdges" />
    <rect x="1040" y="68" width="8" height="8" fill="#aabcff" stroke="#4b6acc" stroke-width="1" shape-rendering="crispEdges" />
    <rect x="980" y="80" width="8" height="8" fill="#aabcff" stroke="#4b6acc" stroke-width="1" shape-rendering="crispEdges" />
    <rect x="968" y="92" width="8" height="8" fill="#aabcff" stroke="#4b6acc" stroke-width="1" shape-rendering="crispEdges" />
    <rect x="1004" y="80" width="8" height="8" fill="#aabcff" stroke="#4b6acc" stroke-width="1" shape-rendering="crispEdges" />
    <rect x="1028" y="80" width="8" height="8" fill="#aabcff" stroke="#4b6acc" stroke-width="1" shape-rendering="crispEdges" />
    <rect x="1040" y="92" width="8" height="8" fill="#aabcff" stroke="#4b6acc" stroke-width="1" shape-rendering="crispEdges" />
    <rect x="968" y="116" width="8" height="8" fill="#aabcff" stroke="#4b6acc" stroke-width="1" shape-rendering="crispEdges" />
    <rect x="1040" y="116" width="8" height="8" fill="#aabcff" stroke="#4b6acc" stroke-width="1" shape-rendering="crispEdges" />
    <rect x="1052" y="128" width="8" height="8" fill="#aabcff" stroke="#4b6acc" stroke-width="1" shape-rendering="crispEdges" />
    <rect x="964" y="28" width="16" height="16" fill="#7396ff" stroke="#4b6acc" stroke-width="1.5" shape-rendering="crispEdges" />
    <rect x="988" y="28" width="16" height="16" fill="#7396ff" stroke="#4b6acc" stroke-width="1.5" shape-rendering="crispEdges" />
    <rect x="1012" y="28" width="16" height="16" fill="#7396ff" stroke="#4b6acc" stroke-width="1.5" shape-rendering="crispEdges" />
    <rect x="1036" y="28" width="16" height="16" fill="#7396ff" stroke="#4b6acc" stroke-width="1.5" shape-rendering="crispEdges" />
    <rect x="964" y="52" width="16" height="16" fill="#7396ff" stroke="#4b6acc" stroke-width="1.5" shape-rendering="crispEdges" />
    <rect x="1036" y="52" width="16" height="16" fill="#7396ff" stroke="#4b6acc" stroke-width="1.5" shape-rendering="crispEdges" />
    <rect x="964" y="76" width="16" height="16" fill="#7396ff" stroke="#4b6acc" stroke-width="1.5" shape-rendering="crispEdges" />
    <rect x="988" y="76" width="16" height="16" fill="#7396ff" stroke="#4b6acc" stroke-width="1.5" shape-rendering="crispEdges" />
    <rect x="1012" y="76" width="16" height="16" fill="#7396ff" stroke="#4b6acc" stroke-width="1.5" shape-rendering="crispEdges" />
    <rect x="1036" y="76" width="16" height="16" fill="#7396ff" stroke="#4b6acc" stroke-width="1.5" shape-rendering="crispEdges" />
    <rect x="964" y="100" width="16" height="16" fill="#7396ff" stroke="#4b6acc" stroke-width="1.5" shape-rendering="crispEdges" />
    <rect x="1036" y="100" width="16" height="16" fill="#7396ff" stroke="#4b6acc" stroke-width="1.5" shape-rendering="crispEdges" />
    <rect x="964" y="124" width="16" height="16" fill="#7396ff" stroke="#4b6acc" stroke-width="1.5" shape-rendering="crispEdges" />
    <rect x="1036" y="124" width="16" height="16" fill="#7396ff" stroke="#4b6acc" stroke-width="1.5" shape-rendering="crispEdges" />
    <rect x="1060" y="124" width="16" height="16" fill="#7396ff" stroke="#4b6acc" stroke-width="1.5" shape-rendering="crispEdges" />
  </g>
  <g data-letter="A">
    <rect x="1148" y="32" width="8" height="8" fill="#ffb3b3" stroke="#c45959" stroke-width="1" shape-rendering="crispEdges" />
    <rect x="1172" y="32" width="8" height="8" fill="#ffb3b3" stroke="#c45959" stroke-width="1" shape-rendering="crispEdges" />
    <rect x="1112" y="68" width="8" height="8" fill="#ffb3b3" stroke="#c45959" stroke-width="1" shape-rendering="crispEdges" />
    <rect x="1208" y="68" width="8" height="8" fill="#ffb3b3" stroke="#c45959" stroke-width="1" shape-rendering="crispEdges" />
    <rect x="1124" y="80" width="8" height="8" fill="#ffb3b3" stroke="#c45959" stroke-width="1" shape-rendering="crispEdges" />
    <rect x="1112" y="92" width="8" height="8" fill="#ffb3b3" stroke="#c45959" stroke-width="1" shape-rendering="crispEdges" />
    <rect x="1148" y="80" width="8" height="8" fill="#ffb3b3" stroke="#c45959" stroke-width="1" shape-rendering="crispEdges" />
    <rect x="1172" y="80" width="8" height="8" fill="#ffb3b3" stroke="#c45959" stroke-width="1" shape-rendering="crispEdges" />
    <rect x="1196" y="80" width="8" height="8" fill="#ffb3b3" stroke="#c45959" stroke-width="1" shape-rendering="crispEdges" />
    <rect x="1208" y="92" width="8" height="8" fill="#ffb3b3" stroke="#c45959" stroke-width="1" shape-rendering="crispEdges" />
    <rect x="1112" y="116" width="8" height="8" fill="#ffb3b3" stroke="#c45959" stroke-width="1" shape-rendering="crispEdges" />
    <rect x="1208" y="116" width="8" height="8" fill="#ffb3b3" stroke="#c45959" stroke-width="1" shape-rendering="crispEdges" />
    <rect x="1132" y="28" width="16" height="16" fill="#ff7f7f" stroke="#c45959" stroke-width="1.5" shape-rendering="crispEdges" />
    <rect x="1156" y="28" width="16" height="16" fill="#ff7f7f" stroke="#c45959" stroke-width="1.5" shape-rendering="crispEdges" />
    <rect x="1180" y="28" width="16" height="16" fill="#ff7f7f" stroke="#c45959" stroke-width="1.5" shape-rendering="crispEdges" />
    <rect x="1108" y="52" width="16" height="16" fill="#ff7f7f" stroke="#c45959" stroke-width="1.5" shape-rendering="crispEdges" />
    <rect x="1204" y="52" width="16" height="16" fill="#ff7f7f" stroke="#c45959" stroke-width="1.5" shape-rendering="crispEdges" />
    <rect x="1108" y="76" width="16" height="16" fill="#ff7f7f" stroke="#c45959" stroke-width="1.5" shape-rendering="crispEdges" />
    <rect x="1132" y="76" width="16" height="16" fill="#ff7f7f" stroke="#c45959" stroke-width="1.5" shape-rendering="crispEdges" />
    <rect x="1156" y="76" width="16" height="16" fill="#ff7f7f" stroke="#c45959" stroke-width="1.5" shape-rendering="crispEdges" />
    <rect x="1180" y="76" width="16" height="16" fill="#ff7f7f" stroke="#c45959" stroke-width="1.5" shape-rendering="crispEdges" />
    <rect x="1204" y="76" width="16" height="16" fill="#ff7f7f" stroke="#c45959" stroke-width="1.5" shape-rendering="crispEdges" />
    <rect x="1108" y="100" width="16" height="16" fill="#ff7f7f" stroke="#c45959" stroke-width="1.5" shape-rendering="crispEdges" />
    <rect x="1204" y="100" width="16" height="16" fill="#ff7f7f" stroke="#c45959" stroke-width="1.5" shape-rendering="crispEdges" />
    <rect x="1108" y="124" width="16" height="16" fill="#ff7f7f" stroke="#c45959" stroke-width="1.5" shape-rendering="crispEdges" />
    <rect x="1204" y="124" width="16" height="16" fill="#ff7f7f" stroke="#c45959" stroke-width="1.5" shape-rendering="crispEdges" />
  </g>
  <g data-letter="W">
    <rect x="1256" y="44" width="8" height="8" fill="#9adba5" stroke="#3e8d4d" stroke-width="1" shape-rendering="crispEdges" />
    <rect x="1352" y="44" width="8" height="8" fill="#9adba5" stroke="#3e8d4d" stroke-width="1" shape-rendering="crispEdges" />
    <rect x="1256" y="68" width="8" height="8" fill="#9adba5" stroke="#3e8d4d" stroke-width="1" shape-rendering="crispEdges" />
    <rect x="1352" y="68" width="8" height="8" fill="#9adba5" stroke="#3e8d4d" stroke-width="1" shape-rendering="crispEdges" />
    <rect x="1256" y="92" width="8" height="8" fill="#9adba5" stroke="#3e8d4d" stroke-width="1" shape-rendering="crispEdges" />
    <rect x="1304" y="92" width="8" height="8" fill="#9adba5" stroke="#3e8d4d" stroke-width="1" shape-rendering="crispEdges" />
    <rect x="1352" y="92" width="8" height="8" fill="#9adba5" stroke="#3e8d4d" stroke-width="1" shape-rendering="crispEdges" />
    <rect x="1252" y="28" width="16" height="16" fill="#63c676" stroke="#3e8d4d" stroke-width="1.5" shape-rendering="crispEdges" />
    <rect x="1348" y="28" width="16" height="16" fill="#63c676" stroke="#3e8d4d" stroke-width="1.5" shape-rendering="crispEdges" />
    <rect x="1252" y="52" width="16" height="16" fill="#63c676" stroke="#3e8d4d" stroke-width="1.5" shape-rendering="crispEdges" />
    <rect x="1348" y="52" width="16" height="16" fill="#63c676" stroke="#3e8d4d" stroke-width="1.5" shape-rendering="crispEdges" />
    <rect x="1252" y="76" width="16" height="16" fill="#63c676" stroke="#3e8d4d" stroke-width="1.5" shape-rendering="crispEdges" />
    <rect x="1300" y="76" width="16" height="16" fill="#63c676" stroke="#3e8d4d" stroke-width="1.5" shape-rendering="crispEdges" />
    <rect x="1348" y="76" width="16" height="16" fill="#63c676" stroke="#3e8d4d" stroke-width="1.5" shape-rendering="crispEdges" />
    <rect x="1252" y="100" width="16" height="16" fill="#63c676" stroke="#3e8d4d" stroke-width="1.5" shape-rendering="crispEdges" />
    <rect x="1300" y="100" width="16" height="16" fill="#63c676" stroke="#3e8d4d" stroke-width="1.5" shape-rendering="crispEdges" />
    <rect x="1348" y="100" width="16" height="16" fill="#63c676" stroke="#3e8d4d" stroke-width="1.5" shape-rendering="crispEdges" />
    <rect x="1276" y="124" width="16" height="16" fill="#63c676" stroke="#3e8d4d" stroke-width="1.5" shape-rendering="crispEdges" />
    <rect x="1324" y="124" width="16" height="16" fill="#63c676" stroke="#3e8d4d" stroke-width="1.5" shape-rendering="crispEdges" />
  </g>
</svg>
